<svg height='100px' width='100px'  fill="#eb806d" xmlns="http://www.w3.org/2000/svg" xmlns:xlink="http://www.w3.org/1999/xlink" viewBox="0 0 25 25" version="1.1" x="0px" y="0px"><title>Star Badge</title><desc>Created with Sketch.</desc><g stroke="none" stroke-width="1" fill="none" fill-rule="evenodd"><path d="M12.5,9.68511213 L13.8931829,10.4175517 L13.6271086,8.86621979 L14.7542172,7.76756042 L13.1965914,7.54122414 L12.5,6.12977573 L11.8034086,7.54122414 L10.2457828,7.76756042 L11.3728914,8.86621979 L11.1068171,10.4175517 L12.5,9.68511213 Z M9.7786861,12.2455672 L10.2984108,9.21533969 L8.09682162,7.06932062 L11.1393431,6.62721638 L12.5,3.87022427 L13.8606569,6.62721638 L16.9031784,7.06932062 L14.7015892,9.21533969 L15.2213139,12.2455672 L12.5,10.8148879 L9.7786861,12.2455672 Z M12.5,14 C15.5375661,14 18,11.5375661 18,8.5 C18,5.46243388 15.5375661,3 12.5,3 C9.46243388,3 7,5.46243388 7,8.5 C7,11.5375661 9.46243388,14 12.5,14 Z M12.5,15 C8.91014913,15 6,12.0898509 6,8.5 C6,4.91014913 8.91014913,2 12.5,2 C16.0898509,2 19,4.91014913 19,8.5 C19,12.0898509 16.0898509,15 12.5,15 Z M17.1248388,14.4047225 L18.9500907,21.2166557 L16.2764571,20.8977775 L14.1204616,22.5107509 L12.5,16.4631058 L10.8795384,22.5107509 L8.72354286,20.8977775 L6.04990925,21.2166557 L7.87516125,14.4047225 C8.15227969,14.6220782 8.44508207,14.820348 8.75158911,14.9975525 L7.39811934,20.0487705 L9.00229951,19.8574435 L10.2958968,20.8252276 L11.6030361,15.9469175 C11.8971373,15.9819682 12.1964629,16 12.5,16 C12.8035371,16 13.1028627,15.9819682 13.3969639,15.9469175 L14.7041032,20.8252276 L15.9977005,19.8574435 L17.6018807,20.0487705 L16.2484109,14.9975525 C16.5549179,14.820348 16.8477203,14.6220782 17.1248388,14.4047225 Z" fill="#eb806d" fill-rule="nonzero"></path></g></svg>