<svg xmlns="http://www.w3.org/2000/svg" width="512" height="512" viewBox="0 0 512 512">
  <defs>
    <style>
      .cls-1 {
        fill: #c23d4b;
      }

      .cls-1, .cls-2 {
        fill-rule: evenodd;
      }

      .cls-2 {
        fill: #fff;
      }
    </style>
  </defs>
  <g id="Logo">
    <path class="cls-1" d="M575.573,677.049a25.191,25.191,0,0,0,18.193-24.182V459.239a27.851,27.851,0,0,0-27.88-27.82H168.114a27.85,27.85,0,0,0-27.88,27.82V652.867a25.191,25.191,0,0,0,18.193,24.182l185.481,52.208a85.239,85.239,0,0,0,46.184,0Z" transform="translate(-111 -326)"/>
    <path id="TDC" class="cls-2" d="M248.366,637.628q1.7-1.7,1.7-5.5v-98.27h29.421q3.8,0,5.5-1.7t1.7-5.5V502.432q0-3.8-1.7-5.5t-5.5-1.7H173.813q-3.8,0-5.5,1.7t-1.7,5.5v24.217q0,3.806,1.7,5.5t5.5,1.7h29.421v98.27q0,3.8,1.7,5.5t5.5,1.7h32.423Q246.662,639.329,248.366,637.628Zm169.518-8.306q12.106-10,12.109-30.822V536.056q0-20.812-12.109-30.822t-37.126-10.007H313.31q-3.8,0-5.5,1.7t-1.7,5.5V632.124q0,3.8,1.7,5.5t5.5,1.7h67.448Q405.774,639.329,417.884,629.322Zm-42.53-95.868q4.8,0,7.105,2.3t2.3,7.305V591.7q0,5.005-2.3,7.406t-7.105,2.4H351.537V533.454h23.817ZM556.78,637.628q1.7-1.7,1.7-5.5V608.307q0-3.8-1.7-5.5t-5.5-1.7H511.048q-6.207,0-9.207-2.3t-3-7.306V543.862q0-5,3-7.506t9.207-2.5h40.228q3.8,0,5.5-1.7t1.7-5.5V502.432q0-3.8-1.7-5.5t-5.5-1.7H502.441q-25.02,0-37.126,10.107t-12.108,30.922V598.5q0,20.819,12.108,30.822t37.126,10.007h48.835Q555.075,639.329,556.78,637.628Z" transform="translate(-111 -326)"/>
  </g>
</svg>
