<svg xmlns="http://www.w3.org/2000/svg" width="1024" height="768" viewBox="0 0 1024 768">
  <defs>
    <style>
      .cls-1 {
        fill: #c23d4b;
      }

      .cls-1, .cls-2 {
        fill-rule: evenodd;
      }

      .cls-2 {
        fill: #fff;
      }
    </style>
  </defs>
  <g id="LogoMark">
    <path class="cls-1" d="M1671.41,652.962a52.7,52.7,0,0,0,38.07-50.6V197.225a58.276,58.276,0,0,0-58.34-58.21H818.858a58.274,58.274,0,0,0-58.337,58.21V602.364a52.708,52.708,0,0,0,38.067,50.6L1186.68,762.2a178.385,178.385,0,0,0,96.64,0Z" transform="translate(-723 -70)"/>
    <path id="TDC" class="cls-2" d="M996.143,506.448q3.553-3.553,3.56-11.517V289.315h61.557q7.95,0,11.52-3.56t3.56-11.516V223.568q0-7.95-3.56-11.516t-11.52-3.56H840.151q-7.959,0-11.516,3.56t-3.56,11.516v50.671q0,7.961,3.56,11.516t11.516,3.56H901.71V494.931q0,7.961,3.56,11.517t11.516,3.559h67.841Q992.577,510.007,996.143,506.448Zm354.7-17.379q25.335-20.935,25.33-64.491V293.922q0-43.55-25.33-64.491-25.35-20.936-77.68-20.939H1132.03q-7.965,0-11.52,3.56t-3.56,11.516V494.931q0,7.961,3.56,11.517t11.52,3.559h141.13Q1325.5,510.007,1350.84,489.069Zm-88.99-200.591q10.05,0,14.87,4.815,4.8,4.819,4.81,15.286V410.34q0,10.472-4.81,15.494-4.83,5.025-14.87,5.025h-49.83V288.478h49.83Zm379.61,217.97q3.555-3.553,3.56-11.517V445.1q0-7.95-3.56-11.517t-11.52-3.559h-84.17q-12.99,0-19.26-4.816-6.285-4.809-6.28-15.285V310.254q0-10.464,6.28-15.7t19.26-5.235h84.17q7.95,0,11.52-3.56,3.555-3.552,3.56-11.516V223.568q0-7.95-3.56-11.516t-11.52-3.56H1527.76q-52.35,0-77.68,21.148t-25.33,64.7V424.578q0,43.559,25.33,64.491t77.68,20.938h102.18Q1637.89,510.007,1641.46,506.448Z" transform="translate(-723 -70)"/>
    <path id="Tarpaulin_Design_Co." data-name="Tarpaulin Design Co." class="cls-2" d="M870.455,608.463A2.416,2.416,0,0,0,871,606.7V575.279h9.408a1.973,1.973,0,0,0,2.3-2.3v-7.744a1.973,1.973,0,0,0-2.3-2.3H846.616a1.974,1.974,0,0,0-2.3,2.3v7.744a1.974,1.974,0,0,0,2.3,2.3h9.408V606.7a1.972,1.972,0,0,0,2.3,2.3H868.7A2.415,2.415,0,0,0,870.455,608.463Zm33.152-32.928a0.983,0.983,0,0,1,.672-0.256h1.6a0.983,0.983,0,0,1,.672.256,2.443,2.443,0,0,1,.544.832L910.1,586.1H900.055l3.008-9.728A2.428,2.428,0,0,1,903.607,575.535Zm-4.192,22.208h11.328v8.96a2.251,2.251,0,0,0,.608,1.76,2.768,2.768,0,0,0,1.888.544H922.9a1.973,1.973,0,0,0,2.3-2.3v-16.9a18.952,18.952,0,0,0-.608-4.416,48.9,48.9,0,0,0-1.888-5.824l-5.568-14.528a3.008,3.008,0,0,0-1.184-1.6,3.679,3.679,0,0,0-2.016-.512H896.727a3.8,3.8,0,0,0-2.08.512,3,3,0,0,0-1.184,1.6L887.9,579.567a48.536,48.536,0,0,0-1.888,5.824,18.9,18.9,0,0,0-.608,4.416v16.9a1.973,1.973,0,0,0,2.3,2.3h9.408a1.973,1.973,0,0,0,2.3-2.3v-8.96Zm52.928-23.3a2.511,2.511,0,0,1,2.24.864,3.782,3.782,0,0,1,.576,2.144v2.176a3.78,3.78,0,0,1-.576,2.144,2.511,2.511,0,0,1-2.24.864h-4.8v-8.192h4.8ZM947,608.463a2.416,2.416,0,0,0,.544-1.76V594.159h8.96a2.306,2.306,0,0,1,1.888.672,3.283,3.283,0,0,1,.544,2.08V606.7a1.973,1.973,0,0,0,2.3,2.3h9.92a1.973,1.973,0,0,0,2.3-2.3V593.135a9.422,9.422,0,0,0-2.144-6.464,8.423,8.423,0,0,0-5.6-2.816,4.984,4.984,0,0,0,2.784-2.72,11.718,11.718,0,0,0,.8-4.576v-2.944a10.988,10.988,0,0,0-2.72-7.712q-2.721-2.976-9.888-2.976H935.383a1.973,1.973,0,0,0-2.3,2.3V606.7a1.973,1.973,0,0,0,2.3,2.3h9.856A2.415,2.415,0,0,0,947,608.463Zm47.616,0a2.416,2.416,0,0,0,.544-1.76V596.079h7.361q8.7,0,11.9-3.456a12.725,12.725,0,0,0,3.2-9.024v-8.192a12.725,12.725,0,0,0-3.2-9.024q-3.2-3.456-11.9-3.456H982.935a1.973,1.973,0,0,0-2.3,2.3V606.7a1.973,1.973,0,0,0,2.3,2.3h9.92A2.415,2.415,0,0,0,994.615,608.463Zm6.175-33.568a2.611,2.611,0,0,1,2.43.96,4.1,4.1,0,0,1,.58,2.176v3.392a4.094,4.094,0,0,1-.58,2.176,2.611,2.611,0,0,1-2.43.96h-5.759V574.9h5.759Zm40.1,0.64a0.967,0.967,0,0,1,.67-0.256h1.6a0.985,0.985,0,0,1,.67.256,2.457,2.457,0,0,1,.54.832l3.01,9.728h-10.05l3.01-9.728A2.32,2.32,0,0,1,1040.89,575.535Zm-4.2,22.208h11.33v8.96a2.237,2.237,0,0,0,.61,1.76,2.772,2.772,0,0,0,1.89.544h9.66a1.98,1.98,0,0,0,2.31-2.3v-16.9a19.236,19.236,0,0,0-.61-4.416,50.267,50.267,0,0,0-1.89-5.824l-5.57-14.528a2.987,2.987,0,0,0-1.18-1.6,3.707,3.707,0,0,0-2.02-.512h-17.21a3.782,3.782,0,0,0-2.08.512,3,3,0,0,0-1.19,1.6l-5.57,14.528a48.162,48.162,0,0,0-1.88,5.824,18.7,18.7,0,0,0-.61,4.416v16.9a1.969,1.969,0,0,0,2.3,2.3h9.41a1.969,1.969,0,0,0,2.3-2.3v-8.96Zm72.9-32.512a1.969,1.969,0,0,0-2.3-2.3h-9.73a1.98,1.98,0,0,0-2.31,2.3v29.184a2.767,2.767,0,0,1-.96,2.144q-0.96.864-4.35,0.864-3.33,0-4.29-.864a2.767,2.767,0,0,1-.96-2.144V565.231a1.969,1.969,0,0,0-2.3-2.3h-10.05a1.969,1.969,0,0,0-2.3,2.3v31.68a15.836,15.836,0,0,0,.86,5.344,8.968,8.968,0,0,0,3.07,4.1,16.5,16.5,0,0,0,6.05,2.656,50.45,50.45,0,0,0,19.59,0,16.372,16.372,0,0,0,6.04-2.656,8.922,8.922,0,0,0,3.08-4.1,15.836,15.836,0,0,0,.86-5.344v-31.68Zm45.15,43.232a2.425,2.425,0,0,0,.55-1.76v-20.16a1.98,1.98,0,0,0-2.31-2.3h-9.28a1.969,1.969,0,0,0-2.3,2.3v10.368h-8.77v-31.68a1.969,1.969,0,0,0-2.3-2.3h-9.92a1.98,1.98,0,0,0-2.31,2.3V606.7a1.98,1.98,0,0,0,2.31,2.3h32.57A2.41,2.41,0,0,0,1154.74,608.463Zm36.38,0.544a2.41,2.41,0,0,0,1.76-.544,2.382,2.382,0,0,0,.55-1.76v-7.616a2.385,2.385,0,0,0-.55-1.76,2.415,2.415,0,0,0-1.76-.544h-6.2v-21.5h6.2a2.41,2.41,0,0,0,1.76-.544,2.382,2.382,0,0,0,.55-1.76v-7.744a2.385,2.385,0,0,0-.55-1.76,2.415,2.415,0,0,0-1.76-.544h-27.26a1.969,1.969,0,0,0-2.3,2.3v7.744a1.969,1.969,0,0,0,2.3,2.3h6.34v21.5h-6.34a1.969,1.969,0,0,0-2.3,2.3V606.7a1.969,1.969,0,0,0,2.3,2.3h27.26Zm23.84-.544a2.382,2.382,0,0,0,.55-1.76v-21.12l10.94,13.248V606.7a2.382,2.382,0,0,0,.55,1.76,2.41,2.41,0,0,0,1.76.544h9.6a1.969,1.969,0,0,0,2.3-2.3V565.231a1.969,1.969,0,0,0-2.3-2.3h-9.6a2.415,2.415,0,0,0-1.76.544,2.385,2.385,0,0,0-.55,1.76v13.632l-12.41-14.208a5.021,5.021,0,0,0-1.7-1.344,5.116,5.116,0,0,0-2.08-.384h-6.66a1.969,1.969,0,0,0-2.3,2.3V606.7a1.969,1.969,0,0,0,2.3,2.3h9.6A2.41,2.41,0,0,0,1214.96,608.463Zm84.68-2.656q3.87-3.2,3.87-9.856V575.983q0-6.655-3.87-9.856c-2.59-2.133-6.54-3.2-11.88-3.2H1266.2a1.98,1.98,0,0,0-2.31,2.3V606.7a1.98,1.98,0,0,0,2.31,2.3h21.56C1293.1,609.007,1297.05,607.941,1299.64,605.807Zm-13.6-30.656a3.1,3.1,0,0,1,2.27.736,3.2,3.2,0,0,1,.73,2.336v15.552a3.317,3.317,0,0,1-.73,2.368,3.016,3.016,0,0,1-2.27.768h-7.62v-21.76h7.62Zm59.35,33.312a2.382,2.382,0,0,0,.55-1.76v-7.488a2.385,2.385,0,0,0-.55-1.76,2.415,2.415,0,0,0-1.76-.544h-17.66v-5.5h12.48a1.969,1.969,0,0,0,2.3-2.3v-6.848a1.969,1.969,0,0,0-2.3-2.3h-12.48v-4.928h17.66a2.41,2.41,0,0,0,1.76-.544,2.382,2.382,0,0,0,.55-1.76v-7.488a2.385,2.385,0,0,0-.55-1.76,2.415,2.415,0,0,0-1.76-.544h-29.69a1.98,1.98,0,0,0-2.31,2.3V606.7a1.98,1.98,0,0,0,2.31,2.3h29.69A2.41,2.41,0,0,0,1345.39,608.463Zm39.17-2.368q3.555-2.912,3.55-8.352v-6.72c0-3.584-.91-6.144-2.75-7.68a14.091,14.091,0,0,0-7.23-2.944l-9.54-1.28a1.711,1.711,0,0,1-1.28-.64,2.271,2.271,0,0,1-.44-1.408,2.138,2.138,0,0,1,.44-1.376,1.574,1.574,0,0,1,1.28-.544h14.92a1.969,1.969,0,0,0,2.3-2.3v-7.616a1.969,1.969,0,0,0-2.3-2.3h-17.92q-6.21,0-9.73,2.912t-3.52,8.352v6.72c0,3.584.9,6.144,2.72,7.68a13.9,13.9,0,0,0,7.2,2.944l9.6,1.344a1.711,1.711,0,0,1,1.25.576,2.571,2.571,0,0,1,.41,1.6,2.137,2.137,0,0,1-.41,1.312,1.485,1.485,0,0,1-1.25.544h-17.22a1.969,1.969,0,0,0-2.3,2.3V606.7a1.969,1.969,0,0,0,2.3,2.3h20.23Q1381.005,609.007,1384.56,606.1Zm39.07,2.912a2.41,2.41,0,0,0,1.76-.544,2.382,2.382,0,0,0,.55-1.76v-7.616a2.385,2.385,0,0,0-.55-1.76,2.415,2.415,0,0,0-1.76-.544h-6.2v-21.5h6.2a2.41,2.41,0,0,0,1.76-.544,2.382,2.382,0,0,0,.55-1.76v-7.744a2.385,2.385,0,0,0-.55-1.76,2.415,2.415,0,0,0-1.76-.544h-27.26a1.969,1.969,0,0,0-2.3,2.3v7.744a1.969,1.969,0,0,0,2.3,2.3h6.34v21.5h-6.34a1.969,1.969,0,0,0-2.3,2.3V606.7a1.969,1.969,0,0,0,2.3,2.3h27.26Zm47.14-.544a2.425,2.425,0,0,0,.54-1.76V586.927a1.969,1.969,0,0,0-2.3-2.3h-9.92a1.969,1.969,0,0,0-2.3,2.3v9.984h-6.21a2.929,2.929,0,0,1-2.21-.768,3.318,3.318,0,0,1-.74-2.368v-15.3a2.947,2.947,0,0,1,.96-2.4,4.541,4.541,0,0,1,2.95-.8h13.31a1.969,1.969,0,0,0,2.3-2.3v-7.744a1.969,1.969,0,0,0-2.3-2.3h-16q-7.995,0-11.87,3.2t-3.87,9.856v19.968q0,6.657,3.87,9.856t11.87,3.2h20.16A2.41,2.41,0,0,0,1470.77,608.463Zm22.01,0a2.382,2.382,0,0,0,.55-1.76v-21.12l10.94,13.248V606.7a2.382,2.382,0,0,0,.55,1.76,2.41,2.41,0,0,0,1.76.544h9.6a1.969,1.969,0,0,0,2.3-2.3V565.231a1.969,1.969,0,0,0-2.3-2.3h-9.6a2.415,2.415,0,0,0-1.76.544,2.385,2.385,0,0,0-.55,1.76v13.632l-12.41-14.208a5.021,5.021,0,0,0-1.7-1.344,5.116,5.116,0,0,0-2.08-.384h-6.66a1.969,1.969,0,0,0-2.3,2.3V606.7a1.969,1.969,0,0,0,2.3,2.3h9.6A2.41,2.41,0,0,0,1492.78,608.463Zm81.35,0a2.425,2.425,0,0,0,.54-1.76v-7.616a1.969,1.969,0,0,0-2.3-2.3H1559.5a4.812,4.812,0,0,1-2.94-.736,2.756,2.756,0,0,1-.96-2.336V578.479a2.947,2.947,0,0,1,.96-2.4,4.528,4.528,0,0,1,2.94-.8h12.87a1.969,1.969,0,0,0,2.3-2.3v-7.744a1.969,1.969,0,0,0-2.3-2.3h-15.62q-7.995,0-11.87,3.232t-3.87,9.888v19.9q0,6.657,3.87,9.856t11.87,3.2h15.62A2.426,2.426,0,0,0,1574.13,608.463Zm46.49-33.376a15.6,15.6,0,0,0-.86-5.344,9.167,9.167,0,0,0-3.07-4.128,16.1,16.1,0,0,0-6.08-2.688,50.91,50.91,0,0,0-19.68,0,16.045,16.045,0,0,0-6.11,2.688,9.118,9.118,0,0,0-3.08,4.128,15.84,15.84,0,0,0-.86,5.344v21.824a15.836,15.836,0,0,0,.86,5.344,8.922,8.922,0,0,0,3.08,4.1,16.376,16.376,0,0,0,6.11,2.656,50.91,50.91,0,0,0,19.68,0,16.437,16.437,0,0,0,6.08-2.656,8.968,8.968,0,0,0,3.07-4.1,15.591,15.591,0,0,0,.86-5.344V575.087Zm-25.21,2.3a2.7,2.7,0,0,1,.96-2.08q0.96-.864,4.41-0.864c2.31,0,3.78.288,4.42,0.864a2.7,2.7,0,0,1,.96,2.08v17.216a2.767,2.767,0,0,1-.96,2.144c-0.64.576-2.11,0.864-4.42,0.864s-3.77-.288-4.41-0.864a2.767,2.767,0,0,1-.96-2.144V577.391Zm49.44,31.072a2.425,2.425,0,0,0,.54-1.76V593.711a1.969,1.969,0,0,0-2.3-2.3h-12.93a1.969,1.969,0,0,0-2.3,2.3V606.7a1.969,1.969,0,0,0,2.3,2.3h12.93A2.426,2.426,0,0,0,1644.85,608.463Z" transform="translate(-723 -70)"/>
  </g>
</svg>
